<?xml version="1.0" encoding="utf-8"?>
<svg xmlns="http://www.w3.org/2000/svg" xmlns:xlink="http://www.w3.org/1999/xlink" style="margin: auto; background-image: none; display: block; shape-rendering: auto; background-position: initial initial; background-repeat: initial initial;" width="150px" height="150px" viewBox="0 0 100 100" preserveAspectRatio="xMidYMid">
<g transform="rotate(0 50 50)">
  <rect x="46" y="22.5" rx="4" ry="7.5" width="8" height="15" fill="#93dbe9">
    <animate attributeName="opacity" values="1;0" keyTimes="0;1" dur="0.8s" begin="-0.7466666666666667s" repeatCount="indefinite"></animate>
  </rect>
</g><g transform="rotate(24 50 50)">
  <rect x="46" y="22.5" rx="4" ry="7.5" width="8" height="15" fill="#689cc5">
    <animate attributeName="opacity" values="1;0" keyTimes="0;1" dur="0.8s" begin="-0.6933333333333334s" repeatCount="indefinite"></animate>
  </rect>
</g><g transform="rotate(48 50 50)">
  <rect x="46" y="22.5" rx="4" ry="7.5" width="8" height="15" fill="#5e6fa3">
    <animate attributeName="opacity" values="1;0" keyTimes="0;1" dur="0.8s" begin="-0.64s" repeatCount="indefinite"></animate>
  </rect>
</g><g transform="rotate(72 50 50)">
  <rect x="46" y="22.5" rx="4" ry="7.5" width="8" height="15" fill="#3b4368">
    <animate attributeName="opacity" values="1;0" keyTimes="0;1" dur="0.8s" begin="-0.5866666666666667s" repeatCount="indefinite"></animate>
  </rect>
</g><g transform="rotate(96 50 50)">
  <rect x="46" y="22.5" rx="4" ry="7.5" width="8" height="15" fill="#191d3a">
    <animate attributeName="opacity" values="1;0" keyTimes="0;1" dur="0.8s" begin="-0.5333333333333333s" repeatCount="indefinite"></animate>
  </rect>
</g><g transform="rotate(120 50 50)">
  <rect x="46" y="22.5" rx="4" ry="7.5" width="8" height="15" fill="#d9dbee">
    <animate attributeName="opacity" values="1;0" keyTimes="0;1" dur="0.8s" begin="-0.48s" repeatCount="indefinite"></animate>
  </rect>
</g><g transform="rotate(144 50 50)">
  <rect x="46" y="22.5" rx="4" ry="7.5" width="8" height="15" fill="#b3b7e2">
    <animate attributeName="opacity" values="1;0" keyTimes="0;1" dur="0.8s" begin="-0.4266666666666667s" repeatCount="indefinite"></animate>
  </rect>
</g><g transform="rotate(168 50 50)">
  <rect x="46" y="22.5" rx="4" ry="7.5" width="8" height="15" fill="#93dbe9">
    <animate attributeName="opacity" values="1;0" keyTimes="0;1" dur="0.8s" begin="-0.37333333333333335s" repeatCount="indefinite"></animate>
  </rect>
</g><g transform="rotate(192 50 50)">
  <rect x="46" y="22.5" rx="4" ry="7.5" width="8" height="15" fill="#689cc5">
    <animate attributeName="opacity" values="1;0" keyTimes="0;1" dur="0.8s" begin="-0.32s" repeatCount="indefinite"></animate>
  </rect>
</g><g transform="rotate(216 50 50)">
  <rect x="46" y="22.5" rx="4" ry="7.5" width="8" height="15" fill="#5e6fa3">
    <animate attributeName="opacity" values="1;0" keyTimes="0;1" dur="0.8s" begin="-0.26666666666666666s" repeatCount="indefinite"></animate>
  </rect>
</g><g transform="rotate(240 50 50)">
  <rect x="46" y="22.5" rx="4" ry="7.5" width="8" height="15" fill="#3b4368">
    <animate attributeName="opacity" values="1;0" keyTimes="0;1" dur="0.8s" begin="-0.21333333333333335s" repeatCount="indefinite"></animate>
  </rect>
</g><g transform="rotate(264 50 50)">
  <rect x="46" y="22.5" rx="4" ry="7.5" width="8" height="15" fill="#191d3a">
    <animate attributeName="opacity" values="1;0" keyTimes="0;1" dur="0.8s" begin="-0.16s" repeatCount="indefinite"></animate>
  </rect>
</g><g transform="rotate(288 50 50)">
  <rect x="46" y="22.5" rx="4" ry="7.5" width="8" height="15" fill="#d9dbee">
    <animate attributeName="opacity" values="1;0" keyTimes="0;1" dur="0.8s" begin="-0.10666666666666667s" repeatCount="indefinite"></animate>
  </rect>
</g><g transform="rotate(312 50 50)">
  <rect x="46" y="22.5" rx="4" ry="7.5" width="8" height="15" fill="#b3b7e2">
    <animate attributeName="opacity" values="1;0" keyTimes="0;1" dur="0.8s" begin="-0.05333333333333334s" repeatCount="indefinite"></animate>
  </rect>
</g><g transform="rotate(336 50 50)">
  <rect x="46" y="22.5" rx="4" ry="7.5" width="8" height="15" fill="#93dbe9">
    <animate attributeName="opacity" values="1;0" keyTimes="0;1" dur="0.8s" begin="0s" repeatCount="indefinite"></animate>
  </rect>
</g>
<!-- [ldio] generated by https://loading.io/ --></svg>